# xmcd CD database file
#
# Track frame offsets:
#	150
#	30702
#	58853
#	77978
#	100018
#	127070
#	145777
#	169943
#	199183
#	216546
#	238557
#	261387
#
# Disc length: 3699 seconds
#
# Revision: 0
# Processed by: cddbd v1.5.2PL0 Copyright (c) Steve Scherf et al.
# Submitted via: CDex 1.70beta2
#
DISCID=b80e710c
DTITLE=Stephan Bormann - Inspiration
DYEAR=2000
DGENRE=Jazz
TTITLE0=Funky Mood
TTITLE1=Relax`n
TTITLE2=Mr. Feelgood
TTITLE3=Stop And Go
TTITLE4=Living Legend
TTITLE5=Don`t Step...
TTITLE6=Lena
TTITLE7=Dust
TTITLE8=Daybreak
TTITLE9=Deep And Blue
TTITLE10=55
TTITLE11=Sitting Alone
EXTD=YEAR: 2000
EXTT0=
EXTT1=
EXTT2=
EXTT3=
EXTT4=
EXTT5=
EXTT6=
EXTT7=
EXTT8=
EXTT9=
EXTT10=
EXTT11=
PLAYORDER=
